<?xml version="1.0" encoding="UTF-8" standalone="no"?>
<svg
   version="1.0"
   width="398pt"
   height="305pt"
   viewBox="0 0 398 305"
   preserveAspectRatio="xMidYMid"
   id="svg1"
   sodipodi:docname="coil-spring-ends-ground.svg"
   inkscape:version="1.3.2 (091e20e, 2023-11-25, custom)"
   inkscape:export-filename="coil-spring-ends-ground.pdf"
   inkscape:export-xdpi="96"
   inkscape:export-ydpi="96"
   xmlns:inkscape="http://www.inkscape.org/namespaces/inkscape"
   xmlns:sodipodi="http://sodipodi.sourceforge.net/DTD/sodipodi-0.dtd"
   xmlns="http://www.w3.org/2000/svg"
   xmlns:svg="http://www.w3.org/2000/svg">
  <defs
     id="defs1">
    <marker
       style="overflow:visible"
       id="Stop"
       refX="0"
       refY="0"
       orient="auto"
       inkscape:stockid="Stop"
       markerWidth="1"
       markerHeight="1"
       viewBox="0 0 1 1"
       inkscape:isstock="true"
       inkscape:collect="always"
       preserveAspectRatio="xMidYMid">
      <path
         style="fill:none;stroke:context-stroke;stroke-width:1"
         d="M 0,4 V -4"
         id="path23" />
    </marker>
    <inkscape:path-effect
       effect="spiro"
       id="path-effect10"
       is_visible="true"
       lpeversion="1" />
    <linearGradient
       id="swatch10"
       inkscape:swatch="solid">
      <stop
         style="stop-color:#000000;stop-opacity:1;"
         offset="0"
         id="stop10" />
    </linearGradient>
    <inkscape:path-effect
       effect="fillet_chamfer"
       id="path-effect3"
       is_visible="true"
       lpeversion="1"
       nodesatellites_param="F,0,0,1,0,0,0,1 @ F,0,0,1,0,0,0,1 @ F,0,0,1,0,0,0,1 @ F,0,0,1,0,0,0,1"
       radius="0"
       unit="px"
       method="auto"
       mode="F"
       chamfer_steps="1"
       flexible="false"
       use_knot_distance="true"
       apply_no_radius="true"
       apply_with_radius="true"
       only_selected="false"
       hide_knots="false" />
  </defs>
  <sodipodi:namedview
     id="namedview1"
     pagecolor="#ffffff"
     bordercolor="#000000"
     borderopacity="0.25"
     inkscape:showpageshadow="2"
     inkscape:pageopacity="0.0"
     inkscape:pagecheckerboard="0"
     inkscape:deskcolor="#d1d1d1"
     inkscape:document-units="pt"
     inkscape:zoom="1.5077463"
     inkscape:cx="274.91362"
     inkscape:cy="193.66653"
     inkscape:window-width="2400"
     inkscape:window-height="1261"
     inkscape:window-x="2391"
     inkscape:window-y="-9"
     inkscape:window-maximized="1"
     inkscape:current-layer="svg1" />
  <g
     transform="matrix(0.05799347,7.1098543e-4,-7.0324006e-4,0.0573617,-1.3773008,70.827228)"
     fill="#000000"
     stroke="none"
     id="g1">
    <path
       d="m 5753.7618,3673.3622 c -7.9128,0 -40.5533,-5.0551 -73.1938,-12.1322 -112.7582,-23.2532 -194.854,-99.0794 -240.3529,-223.4341 -13.8475,-40.4405 -30.6623,-144.5748 -52.4226,-330.6015 -17.8039,-149.63 -32.6405,-270.9517 -33.6296,-269.9407 -1.9782,1.0111 -27.695,97.0575 -57.3681,211.3019 -54.4009,208.269 -55.39,211.3019 -49.4553,314.4253 5.9345,98.0684 4.9455,107.1675 -21.7604,177.9384 -31.6514,83.9142 -78.1394,130.4208 -173.0935,176.9275 -112.7582,54.5947 -269.037,23.2533 -363.9912,-71.782 -72.2047,-71.782 -81.1067,-107.1675 -240.3527,-928.1107 -49.4553,-258.8195 -53.4117,-274.9956 -61.3247,-266.9076 -1.9782,2.022 -50.4443,193.1036 -107.8125,423.6148 -100.8889,409.4605 -102.867,421.5927 -97.9216,508.5399 3.9566,79.8701 1.9783,96.0463 -22.7493,156.7071 -69.2374,172.8834 -272.0042,253.7645 -436.1958,173.8944 -34.6188,-16.1762 -80.1176,-45.4956 -100.889,-65.7159 -70.2264,-63.6939 -79.1285,-102.1124 -245.2982,-963.4961 -25.7169,-134.4649 -50.4444,-241.6322 -54.4009,-237.5883 -3.9565,4.0441 -40.5533,144.575 -82.0959,311.3924 -40.5532,166.8171 -88.0303,353.8547 -103.856,416.5376 -23.7386,96.0463 -27.6951,125.3657 -23.7386,202.2027 4.9456,81.8921 2.9674,97.0573 -22.7494,163.7842 -31.6514,83.9142 -78.1395,130.4208 -173.0937,176.9275 -111.769,53.5837 -264.0912,24.2643 -363.0019,-68.749 -65.2811,-61.6718 -88.0304,-146.597 -196.8322,-710.7427 -53.4116,-279.0398 -99.8996,-501.4628 -103.856,-495.3966 -2.9675,7.077 -52.4228,201.1916 -109.7908,431.7028 -100.889,409.4605 -102.8672,421.5927 -97.9215,508.5399 3.9564,79.8701 1.9782,96.0463 -22.7496,156.7071 -47.4771,120.3107 -169.137,204.2248 -294.7535,204.2248 -77.1503,0 -180.0175,-39.4295 -238.3746,-92.0021 -74.1831,-66.727 -84.0741,-105.1456 -249.2549,-971.5844 -26.7058,-137.4979 -51.4335,-244.6652 -54.4007,-237.5881 -3.9565,7.077 -38.5753,139.5199 -77.1504,294.2049 l -70.2265,283.0838 16.8148,136.4869 c 9.891,75.826 16.8149,185.0155 16.8149,243.6543 -0.9892,96.0463 -3.9566,112.2226 -30.6623,172.8834 -74.18311,162.7732 -274.97157,225.4562 -439.16329,136.4869 -83.08492,-46.5067 -122.64907,-90.9913 -152.32226,-175.9164 l -24.72775,-68.749 -9.89096,-631.8836 c -4.94563,-346.7777 -9.89116,-719.8417 -10.88017,-830.0422 0,-109.1896 -2.96732,-200.1809 -5.93461,-203.2139 -1.9783,-3.033 -13.8475,4.044 -25.7169,16.1762 l -21.7602,22.2423 -2.9674,-24.2643 c -2.9674,-15.1652 5.9347,-33.3635 23.7386,-52.5726 l 26.7059,-29.3194 -11.8693,-875.53811 c -8.9021,-568.18968 -9.8912,-878.570978 -2.9673,-885.648078 16.81479,-17.1872 131.5511,13.1432 184.96274,48.5287 119.68195,79.8701 143.4204,145.585998 187.93017,538.870398 18.79302,164.79518 35.60783,306.33708 37.58604,314.42518 0.98911,8.0882 14.83659,-35.3854 29.67318,-96.0463 l 27.69508,-111.21148 -25.71686,-125.3657 c -30.66229,-154.6851 -31.6514,-238.5993 -3.95643,-325.5464 71.21575,-219.3899981 370.91482,-284.094898 530.16092,-113.2336 22.7495,24.2643 44.5098,54.5948 48.4662,66.7269 3.9565,12.1322 14.8366,39.4296 24.7278,59.6498 10.8801,22.2423 71.2155,306.3372 143.4204,672.32418 68.2482,348.79981 125.6165,635.92771 127.5947,637.94971 1.9782,2.022 8.9018,-16.1762 14.8366,-39.4295 5.9345,-24.2643 17.8039,-67.7379 24.7275,-95.0353 7.913,-28.3084 52.4228,-204.2248 98.9106,-391.2624 l 85.0633,-340.71159 -25.7169,-132.4428 c -43.5207,-229.5001 -27.695,-340.7117 63.3028,-437.769 24.7278,-26.286298 49.4553,-47.517598 55.3901,-47.517598 4.9455,0 32.6405,-12.1322 59.3462,-25.2754 103.8563,-52.5727 248.2658,-21.2313001 343.22,72.792998 76.1612,74.815 87.0412,114.2446 223.538,808.81108 68.2482,351.83281 125.6165,637.94971 126.6056,636.93861 1.9782,-2.022 25.7166,-94.0242 53.4116,-204.2247 27.6951,-111.2116 66.2701,-263.8746 86.0523,-338.6897 18.7931,-74.81501 45.4988,-180.97131 58.3572,-236.57721 l 23.7387,-99.07928 -24.7278,-130.4208 c -30.6623,-160.7512 -31.6514,-237.5883 -3.9563,-323.5244 26.7058,-82.9032 81.1067,-141.541998 166.1697,-181.982498 120.6711,-56.6168 256.1785,-31.3414001 355.0891,65.7159 81.1068,77.847998 90.0088,111.211498 225.5163,804.766978 68.2484,346.77771 125.6164,632.89461 127.5947,634.91661 4.9456,5.0551 4.9456,4.0441 113.7473,-428.6697 54.4008,-218.37911 98.9106,-409.46071 98.9106,-425.63689 0,-15.1652 -10.8803,-82.9032 -24.7278,-149.6301 -13.8475,-66.7269 -24.7275,-151.652 -24.7275,-189.0596 0,-244.6653 245.2982,-413.504598 455.9778,-311.392198 33.6296,16.1762 79.1285,46.5066 99.8998,67.737898 76.1612,74.815 87.0414,114.2446 223.538,808.81108 68.2484,351.83281 125.6164,637.94971 127.5947,635.92761 1.9782,-1.011 20.7713,-74.815 42.5315,-163.7842 22.7496,-87.9582 69.2375,-276.0068 104.8453,-416.53771 l 64.2919,-256.7975 -25.7168,-223.43398 c -30.6623,-258.8196 -28.6841,-317.4584 12.8584,-411.482698 22.7494,-51.5617 40.5534,-74.81500008 81.1067,-105.1454 45.4989,-35.3855 59.3464,-40.4405 112.7581,-43.4736 l 60.3355,-2.022 -51.4335,17.1872 c -114.7364,39.4296 -190.8974,135.4759 -204.745,255.786498 -4.9455,51.5617 47.4772,558.07958 142.4313,1353.74749 10.8802,92.0022 44.5099,383.1742 74.1829,647.0488 118.6928,1039.3222 135.5076,1179.8531 149.3551,1222.3157 32.6405,99.0793 161.2243,213.3239 239.3637,213.3239 h 33.6296 l -5.9346,-296.227 c -3.9564,-161.7622 -10.8802,-609.6414 -15.8257,-992.8156 -27.695,-2006.86239 -30.6623,-2141.32719 -45.4989,-2197.94399 -12.8584,-46.506598 -49.4553,-105.145398 -97.9216,-158.729098 -20.7712,-22.2423 -79.1284,-47.5177 -128.5838,-54.5948 l -49.4553,-8.0881 60.3355,-1.011 c 113.7472,-2.022 187.9302,56.6168 235.4073,184.004498 29.6732,79.8701 28.6841,75.826 50.4444,1710.63529 7.9129,594.4762 16.8149,1255.6792 20.7713,1467.9922 5.9346,336.6675 4.9455,387.2182 -7.9129,387.2182 z M 5315.5877,2495.5311 c -12.8583,-117.2776 -52.4225,-467.0884 -89.0194,-778.4806 -35.6079,-311.3923 -71.2158,-627.8396 -79.1286,-702.6546 -16.8147,-148.61911 -24.7276,-194.11471 -31.6514,-174.90541 -2.9672,7.0771 -48.4662,188.04861 -100.8888,401.37251 l -96.9324,389.2403 151.3332,774.4365 c 83.0849,426.6479 152.3223,776.4586 154.3007,778.4807 1.9781,2.022 17.8038,-53.5838 36.5969,-124.3546 17.8039,-70.7711 43.5206,-164.7954 55.3898,-209.28 28.6841,-103.1234 28.6841,-102.1124 0,-353.8548 z m -114.7363,764.3264 C 4993.1392,2173.0177 4614.3115,267.25671 4598.4858,229.84921 4571.7799,167.16631 4498.586,89.318312 4436.2723,57.976812 c -36.5968,-18.1982 -65.281,-24.2643 -114.7363,-24.2643 -85.063,0 -145.3985,29.3194 -213.6468,103.123398 -91.9869,99.0794 -101.8781,187.0376 -49.4553,432.7139 13.8474,63.6939 65.281,323.52438 113.7472,576.27799 293.7644,1507.4214 456.9669,2327.3536 475.7601,2376.8933 23.7384,62.6829 89.0194,129.4098 165.1806,169.8503 55.39,28.3084 158.257,29.3194 218.5926,1.011 66.27,-30.3304 136.4965,-97.0573 164.1915,-154.6851 31.6514,-66.7269 32.6405,-135.4757 4.9455,-279.0398 z m -978.2259,-1684.349 c -82.0958,-416.5377 -151.3333,-767.35941 -155.2898,-778.48061 -4.9454,-17.1872 -7.9127,-14.1542 -14.8366,15.1652 -3.9563,19.2093 -51.4335,212.31291 -105.8342,428.66991 l -97.9216,393.2843 154.3005,787.5798 c 99.8998,511.573 157.268,780.5026 162.2134,767.3594 3.9566,-11.1211 36.5971,-137.4977 72.2049,-281.0618 35.6077,-143.5639 80.1176,-320.4914 97.9215,-392.2733 18.7929,-72.7929 34.6186,-142.553 34.6186,-156.7072 0.9891,-13.1432 -66.27,-365.987 -147.3767,-783.5357 z m -370.9148,241.6323 C 3644.9875,761.64239 3542.1203,259.16861 3526.2946,222.77211 3498.5998,160.08921 3420.4604,82.241212 3356.1685,53.932812 3252.3122,7.4261119 3128.674,39.778612 3042.6217,133.80291 c -83.0848,90.9912 -92.976,180.9714 -47.4771,414.5156 16.8148,80.8811 79.1285,404.40548 139.4641,718.83079 60.3355,314.4253 129.5729,671.3132 153.3114,793.6459 23.7386,122.3326 74.1829,388.2292 113.7473,591.443 38.5751,203.2138 76.161,398.3395 84.074,434.736 7.9127,36.3965 28.6841,139.5199 44.5098,230.5111 36.5969,195.1257 56.3789,245.6764 116.7145,303.3041 127.5947,121.3217 275.9605,124.3547 409.4899,10.1102 64.2919,-54.5948 94.9542,-122.3327 95.9433,-208.2689 0.9892,-46.5066 -83.085,-494.3857 -300.6882,-1605.4899 z m -658.7448,-68.7489 C 3003.0576,758.60939 3002.0685,757.59839 2994.1555,777.81859 c -3.9563,11.1212 -33.6295,128.3988 -66.27,261.85261 -32.6405,133.4538 -79.1285,320.4914 -102.8671,415.5267 l -43.5206,173.8944 154.3005,788.5907 c 84.0741,434.736 155.2896,788.5908 156.2787,786.5688 8.9021,-9.0992 209.6905,-824.9873 209.6905,-854.3067 0.9891,-18.1983 -48.4662,-289.1499 -108.8016,-601.5532 z M 2783.476,1820.174 C 2608.4042,921.38259 2473.8857,259.16861 2462.0165,229.84921 c -26.706,-62.6829 -99.8999,-140.530898 -162.2134,-171.872398 -136.4968,-67.7379001 -322.4488,13.1432 -380.8059,165.806298 -28.6841,72.793 -26.706,143.5639 7.9127,322.5134 15.8257,81.8921 79.1285,406.42748 139.464,720.85279 60.3356,314.4253 126.6057,660.192 148.3659,768.3705 20.7714,108.1785 63.3028,324.5354 92.976,480.2316 29.6733,155.6961 83.0849,433.7249 118.6928,617.7294 35.6079,184.0045 74.1829,358.9099 86.0523,390.2513 14.8366,41.4516 34.6186,68.749 72.2047,102.1124 78.1393,68.7489 121.66,87.9582 200.7886,87.9582 84.0739,0 146.3876,-28.3084 215.6251,-97.0573 57.3681,-57.6278 82.0959,-116.2666 83.085,-198.1587 0.9891,-36.3965 -104.8454,-597.5092 -300.6883,-1598.4127 z m -623.1369,109.1894 C 1973.3979,961.82319 1933.8338,761.64239 1930.8664,765.68649 c -2.9674,2.022 -52.4227,198.1587 -110.7798,436.75791 l -107.8126,431.7029 154.3004,787.5798 c 99.8999,511.573 157.2679,780.5026 162.2136,767.3594 3.9564,-11.1211 36.5969,-137.4977 72.2046,-281.0618 35.6078,-143.5639 80.1176,-320.4914 97.9215,-392.2733 18.793,-72.7929 34.6187,-147.6081 34.6187,-166.8173 0.9891,-19.2093 -32.6405,-208.2689 -73.1937,-419.5707 z M 1715.2412,1817.1408 C 1502.5835,734.34509 1406.6401,260.17961 1389.8253,222.77211 1299.8166,18.547312 1072.3223,-28.970388 917.03248,124.70371 c -94.95419,95.0353 -106.82347,178.9495 -58.35726,423.6148 16.8148,80.8811 54.40094,274.99588 84.07412,430.69188 29.67319,155.69611 112.75816,583.35501 182.98456,950.35301 71.2157,366.9981 147.3768,762.3044 169.1372,879.582 21.7603,117.2776 46.488,241.6323 54.4008,278.0288 7.9129,36.3965 28.6842,139.5199 44.5099,230.5111 36.5968,197.1477 60.3354,255.7865 123.6383,310.3812 130.562,113.2336 272.9933,114.2446 402.5662,3.0331 64.2919,-54.5948 94.9542,-122.3327 95.9433,-208.2689 0.9891,-46.5066 -83.0849,-494.3857 -300.6884,-1605.4899 z m -658.7446,-68.7489 C 874.50092,799.04989 866.58817,760.63139 858.67522,773.77459 c -2.96732,7.0771 -16.81481,56.6168 -28.68398,110.2005 l -22.74954,98.0683 105.83446,938.22081 c 58.35716,516.6281 109.79074,947.32 113.74724,957.4301 7.9127,22.2423 137.4857,-471.1323 138.4748,-527.7492 0.9891,-18.1983 -48.4662,-289.1499 -108.8016,-601.5532 z m -73.194,1070.6636 C 905.16321,2146.7313 816.14375,1368.2507 745.91711,746.47719 722.17866,529.10931 697.45091,322.86241 691.51627,287.47701 678.65789,209.62891 646.01739,141.89101 599.5294,95.384312 556.00882,51.910712 467.97827,3.3821119 430.39234,3.3821119 H 402.69736 L 408.6319,237.93731 c 2.96732,129.4097 7.91295,417.5487 10.88027,639.97168 27.69497,2163.56951 35.60772,2568.98621 49.45521,2620.54791 19.78212,67.7378 90.99787,157.718 151.33334,189.0594 69.23744,35.3855 155.28958,41.4516 220.57058,17.1873 65.28101,-25.2754 146.38772,-92.0023 171.1154,-140.5308 23.7385,-47.5178 35.6078,-122.3328 30.6624,-204.2249 -1.9782,-36.3965 -28.6842,-279.0398 -59.3465,-540.8924 z"
       id="path1" />
  </g>
  <text
     xml:space="preserve"
     style="font-style:normal;font-variant:normal;font-weight:normal;font-stretch:normal;font-size:9px;font-family:'David Libre';-inkscape-font-specification:'David Libre';stroke:#000000;stroke-width:0.75;stroke-opacity:1;paint-order:normal"
     x="292.4693"
     y="188.88275"
     id="text11"><tspan
       sodipodi:role="line"
       id="tspan11"
       style="stroke-width:0.75"
       x="292.4693"
       y="188.88275" /></text>
  <path
     style="stroke:#000000;stroke-width:0.75;stroke-opacity:1;marker-start:url(#Stop);marker-end:url(#Stop);paint-order:normal"
     d="M 354.94461,281.47347 V 72.552377"
     id="path11" />
  <text
     xml:space="preserve"
     style="font-style:normal;font-variant:normal;font-weight:normal;font-stretch:normal;font-size:18px;font-family:sans-serif;-inkscape-font-specification:sans-serif;stroke:#000000;stroke-width:0.75;stroke-opacity:1;paint-order:normal"
     x="364.50641"
     y="190.47301"
     id="text12"><tspan
       sodipodi:role="line"
       id="tspan12"
       style="font-style:normal;font-variant:normal;font-weight:normal;font-stretch:normal;font-size:18px;font-family:sans-serif;-inkscape-font-specification:sans-serif;stroke-width:0.75"
       x="364.50641"
       y="190.47301">D</tspan></text>
  <text
     xml:space="preserve"
     style="font-style:normal;font-variant:normal;font-weight:normal;font-stretch:normal;font-size:18px;font-family:sans-serif;-inkscape-font-specification:sans-serif;stroke:#000000;stroke-width:0.75;stroke-opacity:1;paint-order:normal"
     x="102.85689"
     y="24.682611"
     id="text12-7"><tspan
       sodipodi:role="line"
       id="tspan12-6"
       style="font-style:normal;font-variant:normal;font-weight:normal;font-stretch:normal;font-size:18px;font-family:sans-serif;-inkscape-font-specification:sans-serif;stroke-width:0.75"
       x="102.85689"
       y="24.682611">Number of Coils</tspan></text>
  <text
     xml:space="preserve"
     style="font-style:normal;font-variant:normal;font-weight:normal;font-stretch:normal;font-size:18px;font-family:sans-serif;-inkscape-font-specification:sans-serif;stroke:#000000;stroke-width:0.75;stroke-opacity:1;paint-order:normal"
     x="234.33409"
     y="101.41019"
     id="text12-9"><tspan
       sodipodi:role="line"
       id="tspan12-9"
       style="font-style:normal;font-variant:normal;font-weight:normal;font-stretch:normal;font-size:18px;font-family:sans-serif;-inkscape-font-specification:sans-serif;stroke-width:0.75"
       x="234.33409"
       y="101.41019">d</tspan></text>
  <path
     style="fill:none;stroke:#000000;stroke-width:2.06257;stroke-dasharray:none;stroke-opacity:1;paint-order:normal"
     id="path12"
     sodipodi:type="arc"
     sodipodi:cx="-95.336937"
     sodipodi:cy="248.95421"
     sodipodi:rx="21.006702"
     sodipodi:ry="18.128439"
     sodipodi:start="3.1618997"
     sodipodi:end="3.1363834"
     sodipodi:arc-type="arc"
     d="m -116.33931,248.5861 a 21.006702,18.128439 0 0 1 21.294944,-17.75857 21.006702,18.128439 0 0 1 20.713533,18.26353 21.006702,18.128439 0 0 1 -21.030678,17.99157 21.006702,18.128439 0 0 1 -20.981839,-18.03399"
     sodipodi:open="true"
     transform="rotate(-90)" />
  <path
     style="fill:none;stroke:#000000;stroke-width:2.11686;stroke-dasharray:none;stroke-opacity:1;marker-start:url(#Stop);marker-end:url(#Stop);paint-order:normal"
     d="m 249.51905,113.88901 0.18097,-36.217243"
     id="path13" />
  <path
     style="fill:#8794ff;stroke:#000000;stroke-width:0.75"
     d="M 22.881833,42.779081 H 306.4176"
     id="path2" />
  <path
     style="fill:#8794ff;stroke:#000000;stroke-width:0.639126"
     d="M 60.746953,42.553217 V 57.724869"
     id="path4" />
  <path
     style="fill:#8794ff;stroke:#000000;stroke-width:0.639126"
     d="M 128.99696,42.553217 V 57.724869"
     id="path4-4" />
  <path
     style="fill:#8794ff;stroke:#000000;stroke-width:0.75"
     d="M 197.24696,42.553217 V 58.471014"
     id="path6" />
  <path
     style="fill:#8794ff;stroke:#000000;stroke-width:0.75"
     d="m 265.49696,42.553217 v 16.91266"
     id="path7" />
</svg>
