<svg xmlns="http://www.w3.org/2000/svg" width="220" height="60" viewBox="0 0 228 68" fill="none">
              <path d="M25.9907 67.0364C34.9999 67.0364 42.3033 66.1736 42.3033 65.1093C42.3033 64.045 34.9999 63.1822 25.9907 63.1822C16.9815 63.1822 9.6781 64.045 9.6781 65.1093C9.6781 66.1736 16.9815 67.0364 25.9907 67.0364Z" fill="url(#paint0_radial_236_9)"></path>
              <path d="M55.6064 3.88864C53.6571 2.9939 51.1606 1.72062 47.9118 1.27325C47.946 1.27325 46.3729 7.02022 46.4413 7.02022C60.4626 2.16799 60.36 30.2834 47.6724 47.1457C40.2856 56.9534 30.2655 63.0445 20.7584 64.5931C32.4542 67.0708 46.6807 61.0486 56.1878 48.4534C68.3282 32.3137 64.3954 7.98378 55.6064 3.92305V3.88864Z" fill="#A2D9F2"></path>
              <path d="M28.624 61.5648C24.5202 58.8117 23.118 52.3077 23.7336 44.8745C24.3492 37.4413 27.0508 29.0445 31.1204 22.4716C38.3705 10.8745 49.0745 4.09513 55.2986 3.68217C47.604 -1.47977 23.6652 -0.344144 11.6616 15.5891C-0.478787 31.7287 -0.752374 50.9656 11.6616 60.4291C18.1251 65.3846 28.8633 66.9332 38.4389 62.4939C34.8138 63.3542 31.2914 63.3542 28.624 61.5648Z" fill="url(#paint1_linear_236_9)"></path>
              <path d="M54.4095 50.6214C61.044 42.9129 66.6867 35.4797 66.6525 24.6396C66.6525 21.2328 65.3188 18.9959 64.2586 17.6194C63.5404 16.6903 62.7539 16.0708 62.2409 15.6923C61.6937 15.3826 58.4107 13.6619 54.4779 14.9696C50.2373 16.415 48.6984 20.2348 48.4932 20.7854C48.4932 20.7854 53.9307 16.2773 54.4095 23.0911C54.8883 29.9048 52.8706 42.3279 44.2868 51.1376L54.4095 50.6214Z" fill="#A2D9F2"></path>
              <path d="M62.2409 15.1761C61.6253 15.0384 60.9756 14.9696 60.3258 14.9352C53.6571 14.8664 45.8941 19.6498 45.2444 30.2146C44.2868 45.1842 54.2727 51.585 61.7963 53.0303C62.5829 53.168 62.8907 54.166 62.3093 54.7166L58.8895 58.089C58.2055 58.7773 57.2138 59.0526 56.2904 58.8117C41.3458 54.7166 36.9342 43.498 37.3788 32.6235C37.8917 20.4757 46.3729 11.3218 55.1619 12.0789C57.7951 12.3198 60.189 13.3866 62.2751 15.1761H62.2409Z" fill="url(#paint2_linear_236_9)"></path>
              <path d="M95.55 19.8218H101.159L104.955 39.0243L107.759 19.8218H113.675V48.0749H109.913L109.708 28.9069L106.63 48.0749H102.526L99.2777 28.7348V48.0749H95.55V19.8218Z" fill="#2ABAEB"></path>
              <path d="M130.09 19.8907H135.699L139.461 39.1275L142.265 19.8907H148.215V48.1781H144.419L144.214 29.0101L141.171 48.1781H137.067L133.784 28.8036V48.1781H130.09V19.8907Z" fill="#2ABAEB"></path>
              <path d="M121.507 19.8218H116.89V48.1093H121.507V19.8218Z" fill="#2ABAEB"></path>
              <path d="M178.618 19.8218H165.417V23.7449H169.76V48.0749H174.274V23.7449H178.618V19.8218Z" fill="#2ABAEB"></path>
              <path d="M85.4958 19.8218C81.8023 19.8218 78.8271 22.8158 78.8271 26.5324V41.3988C78.8271 45.1154 81.8023 48.1093 85.4958 48.1093C89.1892 48.1093 92.1644 45.1154 92.1644 41.3988V26.5324C92.1644 22.8158 89.1892 19.8218 85.4958 19.8218ZM87.7186 41.7429C87.7186 42.9818 86.7269 43.9797 85.4958 43.9797C84.2646 43.9797 83.2729 42.9818 83.2729 41.7429V26.1538C83.2729 24.915 84.2646 23.917 85.4958 23.917C86.7269 23.917 87.7186 24.915 87.7186 26.1538V41.7429Z" fill="#2ABAEB"></path>
              <path d="M156.902 19.8218C153.208 19.8218 150.233 22.8158 150.233 26.5324V41.3988C150.233 45.1154 153.208 48.1093 156.902 48.1093C160.595 48.1093 163.57 45.1154 163.57 41.3988V26.5324C163.57 22.8158 160.595 19.8218 156.902 19.8218ZM159.125 41.7429C159.125 42.9818 158.133 43.9797 156.902 43.9797C155.671 43.9797 154.679 42.9818 154.679 41.7429V26.1538C154.679 24.915 155.671 23.917 156.902 23.917C158.133 23.917 159.125 24.915 159.125 26.1538V41.7429Z" fill="#2ABAEB"></path>
              <path d="M187.133 19.8218C183.44 19.8218 180.464 22.8158 180.464 26.5324V41.3988C180.464 45.1154 183.44 48.1093 187.133 48.1093C190.826 48.1093 193.802 45.1154 193.802 41.3988V26.5324C193.802 22.8158 190.826 19.8218 187.133 19.8218ZM189.356 41.7429C189.356 42.9818 188.364 43.9797 187.133 43.9797C185.902 43.9797 184.91 42.9818 184.91 41.7429V26.1538C184.91 24.915 185.902 23.917 187.133 23.917C188.364 23.917 189.356 24.915 189.356 26.1538V41.7429Z" fill="#2ABAEB"></path>
              <path d="M210.183 26.1882C210.183 22.6781 207.344 19.8218 203.856 19.8218H197.222V48.1093H201.496V36.9939H203.788C204.916 36.9939 205.84 37.9231 205.84 39.0587V48.1093H210.183V39.4028C210.183 37.4757 209.294 35.755 207.926 34.6194C209.294 33.3117 210.183 31.4534 210.183 29.3886V26.2226V26.1882ZM205.84 30.7307C205.84 31.9696 204.848 33.002 203.582 33.002H201.496V23.4696H203.582C204.814 23.4696 205.84 24.4676 205.84 25.7409V30.7652V30.7307Z" fill="#2ABAEB"></path>
              <path d="M225.572 41.3988V40.917C225.572 38.8522 224.751 36.8563 223.281 35.3765L218.219 30.2834C217.228 29.2854 216.646 27.9089 216.646 26.498V26.1538C216.646 24.915 217.638 23.917 218.869 23.917C220.1 23.917 221.092 24.915 221.092 26.1538V27.7368H225.504V26.5324C225.504 22.8158 222.528 19.8218 218.835 19.8218C215.141 19.8218 212.166 22.8158 212.166 26.5324" fill="#2ABAEB"></path>
              <path d="M212.235 26.498V27.2895C212.235 29.3543 213.055 31.3502 214.526 32.83L219.587 37.9231C220.579 38.9211 221.16 40.2976 221.16 41.7085C221.16 42.9474 220.169 43.9454 218.937 43.9454C217.706 43.9454 216.715 42.9474 216.715 41.7085V39.2652H212.303V41.3644C212.303 45.081 215.278 48.0749 218.972 48.0749C222.665 48.0749 225.64 45.081 225.64 41.3644" fill="#2ABAEB"></path>
              <defs>
                <radialGradient id="paint0_radial_236_9" cx="0" cy="0" r="1" gradientUnits="userSpaceOnUse" gradientTransform="translate(25.9907 65.2139) scale(16.381 1.97805)">
                  <stop stop-color="#3C3C3B" stop-opacity="0.9"></stop>
                  <stop offset="0.13" stop-color="#3C3C3B" stop-opacity="0.71"></stop>
                  <stop offset="0.45" stop-color="#3C3C3B" stop-opacity="0.32"></stop>
                  <stop offset="0.74" stop-color="#3C3C3B" stop-opacity="0.08"></stop>
                  <stop offset="1" stop-color="#3C3C3B" stop-opacity="0"></stop>
                </radialGradient>
                <linearGradient id="paint1_linear_236_9" x1="33.9931" y1="-2.71864" x2="18.8692" y2="64.725" gradientUnits="userSpaceOnUse">
                  <stop stop-color="#0B5285"></stop>
                  <stop offset="0.06" stop-color="#1472A4"></stop>
                  <stop offset="0.12" stop-color="#1B8CBE"></stop>
                  <stop offset="0.19" stop-color="#21A0D2"></stop>
                  <stop offset="0.26" stop-color="#24AFE0"></stop>
                  <stop offset="0.35" stop-color="#27B7E8"></stop>
                  <stop offset="0.5" stop-color="#28BAEB"></stop>
                  <stop offset="0.73" stop-color="#27B8E9"></stop>
                  <stop offset="0.81" stop-color="#26B1E4"></stop>
                  <stop offset="0.87" stop-color="#23A5DC"></stop>
                  <stop offset="0.92" stop-color="#1F94D0"></stop>
                  <stop offset="0.96" stop-color="#1A7EC1"></stop>
                  <stop offset="1" stop-color="#1564AE"></stop>
                </linearGradient>
                <linearGradient id="paint2_linear_236_9" x1="58.7527" y1="2.85625" x2="43.6288" y2="70.3343" gradientUnits="userSpaceOnUse">
                  <stop stop-color="#0B5285"></stop>
                  <stop offset="0.06" stop-color="#1472A4"></stop>
                  <stop offset="0.12" stop-color="#1B8CBE"></stop>
                  <stop offset="0.19" stop-color="#21A0D2"></stop>
                  <stop offset="0.26" stop-color="#24AFE0"></stop>
                  <stop offset="0.35" stop-color="#27B7E8"></stop>
                  <stop offset="0.5" stop-color="#28BAEB"></stop>
                  <stop offset="0.73" stop-color="#27B8E9"></stop>
                  <stop offset="0.81" stop-color="#26B1E4"></stop>
                  <stop offset="0.87" stop-color="#23A5DC"></stop>
                  <stop offset="0.92" stop-color="#1F94D0"></stop>
                  <stop offset="0.96" stop-color="#1A7EC1"></stop>
                  <stop offset="1" stop-color="#1564AE"></stop>
                </linearGradient>
              </defs>
            </svg>